<svg width="15" height="27" viewBox="0 0 15 27" fill="none" xmlns="http://www.w3.org/2000/svg">
<path d="M14.25 6.75V19.875C14.25 23.675 11.175 26.75 7.375 26.75C3.575 26.75 0.5 23.675 0.5 19.875V5.5C0.5 2.7375 2.7375 0.5 5.5 0.5C8.2625 0.5 10.5 2.7375 10.5 5.5V18.625C10.5 19.4538 10.1708 20.2487 9.58471 20.8347C8.99866 21.4208 8.2038 21.75 7.375 21.75C6.5462 21.75 5.75134 21.4208 5.16529 20.8347C4.57924 20.2487 4.25 19.4538 4.25 18.625V6.75H5.5V18.625C5.5 19.1223 5.69754 19.5992 6.04917 19.9508C6.40081 20.3025 6.87772 20.5 7.375 20.5C7.87228 20.5 8.34919 20.3025 8.70083 19.9508C9.05246 19.5992 9.25 19.1223 9.25 18.625V5.5C9.25 4.50544 8.85491 3.55161 8.15165 2.84835C7.44839 2.14509 6.49456 1.75 5.5 1.75C4.50544 1.75 3.55161 2.14509 2.84835 2.84835C2.14509 3.55161 1.75 4.50544 1.75 5.5V19.875C1.75 21.3668 2.34263 22.7976 3.39752 23.8525C4.45242 24.9074 5.88316 25.5 7.375 25.5C8.86684 25.5 10.2976 24.9074 11.3525 23.8525C12.4074 22.7976 13 21.3668 13 19.875V6.75H14.25Z" fill="#4092CE"/>
</svg>
