<svg width="26" height="29" viewBox="0 0 26 29" fill="none" xmlns="http://www.w3.org/2000/svg">
<path d="M6.20833 0.916748H7.66667C8.05344 0.916748 8.42437 1.07039 8.69786 1.34388C8.97135 1.61737 9.125 1.98831 9.125 2.37508V3.83341H16.4167V2.37508C16.4167 1.98831 16.5703 1.61737 16.8438 1.34388C17.1173 1.07039 17.4882 0.916748 17.875 0.916748H19.3333C19.7201 0.916748 20.091 1.07039 20.3645 1.34388C20.638 1.61737 20.7917 1.98831 20.7917 2.37508V3.83341C21.952 3.83341 23.0648 4.29435 23.8853 5.11482C24.7057 5.93529 25.1667 7.04809 25.1667 8.20841V24.2501C25.1667 25.4104 24.7057 26.5232 23.8853 27.3437C23.0648 28.1641 21.952 28.6251 20.7917 28.6251H4.75C3.58968 28.6251 2.47688 28.1641 1.65641 27.3437C0.835936 26.5232 0.375 25.4104 0.375 24.2501V8.20841C0.375 7.04809 0.835936 5.93529 1.65641 5.11482C2.47688 4.29435 3.58968 3.83341 4.75 3.83341V2.37508C4.75 1.98831 4.90365 1.61737 5.17714 1.34388C5.45063 1.07039 5.82156 0.916748 6.20833 0.916748ZM17.875 3.83341H19.3333V2.37508H17.875V3.83341ZM7.66667 3.83341V2.37508H6.20833V3.83341H7.66667ZM4.75 5.29175C3.97645 5.29175 3.23459 5.59904 2.6876 6.14602C2.14062 6.693 1.83333 7.43487 1.83333 8.20841V9.66675H23.7083V8.20841C23.7083 7.43487 23.401 6.693 22.8541 6.14602C22.3071 5.59904 21.5652 5.29175 20.7917 5.29175H4.75ZM1.83333 24.2501C1.83333 25.0236 2.14062 25.7655 2.6876 26.3125C3.23459 26.8595 3.97645 27.1667 4.75 27.1667H20.7917C21.5652 27.1667 22.3071 26.8595 22.8541 26.3125C23.401 25.7655 23.7083 25.0236 23.7083 24.2501V11.1251H1.83333V24.2501ZM13.5 16.9584H20.7917V24.2501H13.5V16.9584ZM14.9583 18.4167V22.7917H19.3333V18.4167H14.9583Z" fill="#4092CE"/>
</svg>
