<svg width="20" height="20" viewBox="0 0 20 20" fill="none" xmlns="http://www.w3.org/2000/svg">
<path d="M17.9859 4.50704V2.48826C17.9859 2.14398 17.8142 1.97183 17.4707 1.97183H15.5035C15.16 1.97183 14.9883 2.14398 14.9883 2.48826V4.50704C14.9883 4.82003 15.16 4.97653 15.5035 4.97653H17.4707C17.8142 4.97653 17.9859 4.82003 17.9859 4.50704ZM2.48244 18.0282H17.4707C17.8142 18.0282 17.9859 17.856 17.9859 17.5117V9.01408H15.8782C15.9407 9.38967 15.9719 9.71831 15.9719 10C15.9719 11.6588 15.3864 13.0751 14.2155 14.2488C13.0445 15.4225 11.6315 16.0094 9.97658 16.0094C8.32162 16.0094 6.90867 15.4225 5.7377 14.2488C4.56674 13.0751 3.98126 11.6588 3.98126 10C3.98126 9.65571 4.01249 9.32707 4.07494 9.01408H2.01405V17.5117C2.01405 17.856 2.17018 18.0282 2.48244 18.0282ZM10 6.00939C8.89149 6.00939 7.94692 6.40063 7.16628 7.1831C6.38564 7.96557 5.99532 8.90454 5.99532 10C5.99532 11.0955 6.38564 12.0344 7.16628 12.8169C7.94692 13.5994 8.89149 13.9906 10 13.9906C11.1085 13.9906 12.0531 13.5994 12.8337 12.8169C13.6144 12.0344 14.0047 11.0955 14.0047 10C14.0047 8.90454 13.6144 7.96557 12.8337 7.1831C12.0531 6.40063 11.1085 6.00939 10 6.00939ZM17.9859 0C18.548 0 19.0242 0.195618 19.4145 0.586854C19.8048 0.978091 20 1.43975 20 1.97183V18.0282C20 18.5603 19.8048 19.0219 19.4145 19.4131C19.0242 19.8044 18.548 20 17.9859 20H2.01405C1.45199 20 0.9758 19.8044 0.58548 19.4131C0.19516 19.0219 0 18.5603 0 18.0282V1.97183C0 1.43975 0.19516 0.978091 0.58548 0.586854C0.9758 0.195618 1.45199 0 2.01405 0H17.9859Z" fill="#828282"/>
</svg>
