<svg width="17" height="25" viewBox="0 0 17 25" fill="none" xmlns="http://www.w3.org/2000/svg">
<path d="M8.3757 5.74995C9.20451 5.74995 9.99936 6.07919 10.5854 6.66524C11.1715 7.25129 11.5007 8.04614 11.5007 8.87495C11.5007 9.70375 11.1715 10.4986 10.5854 11.0847C9.99936 11.6707 9.20451 11.9999 8.3757 11.9999C7.5469 11.9999 6.75205 11.6707 6.166 11.0847C5.57994 10.4986 5.2507 9.70375 5.2507 8.87495C5.2507 8.04614 5.57994 7.25129 6.166 6.66524C6.75205 6.07919 7.5469 5.74995 8.3757 5.74995ZM8.3757 6.99995C7.87842 6.99995 7.40151 7.19749 7.04988 7.54912C6.69825 7.90075 6.5007 8.37767 6.5007 8.87495C6.5007 9.37223 6.69825 9.84914 7.04988 10.2008C7.40151 10.5524 7.87842 10.7499 8.3757 10.7499C8.87299 10.7499 9.3499 10.5524 9.70153 10.2008C10.0532 9.84914 10.2507 9.37223 10.2507 8.87495C10.2507 8.37767 10.0532 7.90075 9.70153 7.54912C9.3499 7.19749 8.87299 6.99995 8.3757 6.99995ZM2.5007 12.4462L8.3757 22.1087L14.2507 12.4462C14.8843 11.4037 15.2291 10.2114 15.2497 8.99161C15.2703 7.77184 14.966 6.56855 14.368 5.50525C13.7699 4.44194 12.8997 3.55692 11.8467 2.94101C10.7936 2.3251 9.59565 2.00048 8.3757 2.00048C7.15576 2.00048 5.95779 2.3251 4.90474 2.94101C3.85168 3.55692 2.98148 4.44194 2.38345 5.50525C1.78541 6.56855 1.48108 7.77184 1.50168 8.99161C1.52229 10.2114 1.86709 11.4037 2.5007 12.4462ZM15.3182 13.0962L8.3757 24.5149L1.4332 13.0962C0.684605 11.8641 0.277304 10.4551 0.253099 9.01362C0.228893 7.57216 0.588654 6.15022 1.29546 4.89372C2.00227 3.63721 3.03067 2.59139 4.27513 1.86359C5.51959 1.13578 6.9353 0.752197 8.37696 0.752197C9.81861 0.752197 11.2343 1.13578 12.4788 1.86359C13.7232 2.59139 14.7516 3.63721 15.4584 4.89372C16.1653 6.15022 16.525 7.57216 16.5008 9.01362C16.4766 10.4551 16.0693 11.8641 15.3207 13.0962H15.3182Z" fill="#4092CE"/>
</svg>
