<svg width="10" height="16" viewBox="0 0 10 16" fill="none" xmlns="http://www.w3.org/2000/svg">
<path d="M4.25373 10.7741C3.46353 10.6937 2.31973 10.4976 1.52433 10.0059C0.97443 9.6651 0.689831 9.4559 0.562031 9.2756C0.512131 9.2051 0.50073 9.1574 0.50003 9.1144C0.49923 9.063 0.51383 8.9714 0.59133 8.8183C0.65523 8.6988 0.76963 8.5989 0.90923 8.5667C1.03563 8.5374 1.26983 8.5441 1.61833 8.8083L1.61973 8.8093L1.62473 8.8131L1.64013 8.8245C1.65273 8.8336 1.66993 8.8459 1.69173 8.8608C1.73523 8.8907 1.79693 8.9313 1.87593 8.979C2.03383 9.0743 2.26173 9.1984 2.55253 9.3217C3.13373 9.568 3.97063 9.8127 5.00183 9.8127C6.03313 9.8127 6.87003 9.568 7.45123 9.3217C7.74193 9.1984 7.96983 9.0743 8.12773 8.979C8.20683 8.9313 8.26853 8.8907 8.31203 8.8608C8.33373 8.8459 8.35103 8.8336 8.36353 8.8245L8.37893 8.8131L8.38403 8.8093L8.38453 8.809C8.38463 8.8089 8.38473 8.8088 8.38493 8.8087C8.73363 8.5457 8.96743 8.5389 9.09373 8.5679C9.23203 8.5998 9.34653 8.6982 9.41233 8.8184C9.48723 8.9693 9.50113 9.0601 9.49993 9.1116C9.49903 9.1553 9.48713 9.204 9.43633 9.2754C9.30743 9.457 9.02233 9.6668 8.47353 10.0087C7.68443 10.4901 6.55623 10.6975 5.76363 10.7771L5.01923 10.8519L4.25373 10.7741ZM5.00343 11.1953L5.46953 11.6374L6.14563 12.2785L6.14823 12.281L8.62053 14.6597C8.74033 14.7787 8.76053 14.8842 8.75143 14.9717C8.74063 15.0762 8.68063 15.2026 8.56563 15.3124C8.32683 15.5403 8.03853 15.5604 7.83143 15.3681C7.21003 14.7609 6.30173 13.887 5.35683 12.9779L5.35503 12.9762L5.00793 12.6422L4.66123 12.9766L2.18663 15.3637C1.98183 15.5538 1.69363 15.5344 1.45373 15.3036C1.33863 15.1929 1.27963 15.0666 1.26963 14.9641C1.26123 14.8789 1.28133 14.776 1.40273 14.6596L1.40343 14.659C1.59643 14.4732 1.81403 14.263 2.05013 14.035C2.58763 13.5157 3.22093 12.9038 3.87903 12.2771L3.88083 12.2754L4.54973 11.6318L5.00343 11.1953ZM1.28723 4.0519C1.28723 2.10684 2.93723 0.5 4.99863 0.5C7.06003 0.5 8.71003 2.10684 8.71003 4.0519C8.71003 5.9868 7.06073 7.5944 4.99863 7.5944C2.93643 7.5944 1.28723 5.9868 1.28723 4.0519ZM2.43023 4.0519C2.43023 5.4426 3.60113 6.5419 4.99863 6.5419C6.39613 6.5419 7.56693 5.4426 7.56693 4.0519C7.56693 2.65329 6.39763 1.55249 4.99863 1.55249C3.59963 1.55249 2.43023 2.65329 2.43023 4.0519Z" fill="#4092CE" stroke="#4092CE"/>
</svg>
