<svg width="17" height="13" viewBox="0 0 17 13" fill="none" xmlns="http://www.w3.org/2000/svg">
<path d="M14.0605 2.8366L14.3561 3.2398L13.8575 3.2768C13.8665 3.3978 13.8667 3.5211 13.8667 3.6658C13.8667 7.7877 10.7332 12.5 5.03626 12.5C3.96736 12.5 2.94539 12.312 1.99988 11.9662C3.15166 11.7691 4.24326 11.2884 5.17236 10.5591L6.27806 9.6913L4.87276 9.6658C4.29256 9.6553 3.73006 9.4639 3.26396 9.1181C3.00816 8.9284 2.78836 8.6975 2.61256 8.4364C2.8848 8.4222 3.15316 8.3792 3.40516 8.3141L3.37916 7.3399C2.74971 7.2127 2.18371 6.8715 1.77738 6.374C1.53041 6.0717 1.35169 5.723 1.2497 5.3517C1.52591 5.4279 1.81542 5.4743 2.11323 5.4856L3.88816 5.5529L2.40895 4.5696C2.02753 4.316 1.71476 3.972 1.49855 3.5681C1.28235 3.1642 1.16944 2.713 1.16992 2.2549V2.2544C1.16992 1.999 1.20324 1.7548 1.2659 1.5234C2.02874 2.3179 2.92104 2.9799 3.90656 3.4801C5.13386 4.1032 6.47846 4.4614 7.85306 4.5316L8.49906 4.5646L8.36816 3.9311C8.32326 3.7136 8.29716 3.4946 8.29716 3.2805V3.2803C8.29696 2.9151 8.36876 2.5535 8.50836 2.2161C8.64796 1.8786 8.85266 1.5721 9.11076 1.3139C9.36896 1.0557 9.67536 0.850891 10.0127 0.711251C10.3499 0.571601 10.7114 0.49982 11.0764 0.5H11.0766C11.8785 0.5 12.6 0.83533 13.1077 1.3777L13.2965 1.5793L13.5677 1.5269C13.7853 1.4848 14.0005 1.4324 14.2126 1.37C14.1012 1.4626 13.9822 1.5469 13.8563 1.6218L14.1685 2.5483C14.2708 2.5367 14.3727 2.5228 14.4743 2.5067C14.341 2.622 14.203 2.7321 14.0605 2.8366Z" fill="#4092CE" stroke="#4092CE"/>
</svg>
