<svg width="18" height="9" viewBox="0 0 18 9" fill="none" xmlns="http://www.w3.org/2000/svg">
<path d="M16.0994 0.5C16.1162 0.5 16.1317 0.5004 16.1458 0.501C16.1056 0.6656 15.9672 0.9643 15.7382 1.3629C15.5151 1.7511 15.2348 2.1861 14.9573 2.5971C14.6805 3.0071 14.41 3.3878 14.2086 3.6663C14.1079 3.8055 14.0247 3.9188 13.9668 3.9971L13.9 4.0872L13.8827 4.1104L13.8784 4.1161L13.8774 4.1175L13.8771 4.1178L13.8651 4.1338L13.8544 4.1506C13.8499 4.1577 13.8452 4.1652 13.8401 4.1731C13.7649 4.2908 13.6348 4.4945 13.6136 4.7329C13.5869 5.0338 13.7272 5.2738 13.8851 5.4654C14.0107 5.6291 14.235 5.8364 14.4334 6.0198C14.4427 6.0283 14.4519 6.0368 14.461 6.0453C14.6932 6.26 14.93 6.4791 15.1148 6.684V6.6841L15.1213 6.691C15.4939 7.0886 15.812 7.4457 16.0538 7.7559C16.2988 8.0703 16.4345 8.2982 16.4861 8.4465C16.4905 8.4622 16.4936 8.4756 16.4958 8.4869C16.4635 8.494 16.4159 8.5 16.3499 8.5H14.6051C14.5062 8.5 14.4452 8.4829 14.3898 8.4553C14.3245 8.4229 14.2428 8.3639 14.1168 8.2435C14.015 8.1464 13.9043 8.0293 13.7615 7.8783C13.7237 7.8384 13.6838 7.7962 13.6412 7.7513C13.4423 7.5419 13.2002 7.2915 12.8931 7.0006H12.8932L12.8854 6.9934C11.8373 6.0421 11.2738 5.8 10.8131 5.8C10.63 5.8 10.2988 5.814 10.0699 6.0842C9.86864 6.3218 9.85534 6.6411 9.85534 6.8645V8.3536C9.85534 8.384 9.85424 8.4057 9.85294 8.4208C9.82504 8.4321 9.77344 8.4487 9.68544 8.4635C9.55374 8.4857 9.36674 8.5 9.10294 8.5C7.43234 8.5 5.53394 7.536 4.16844 5.6693L4.16434 5.6638C3.10332 4.2544 2.43208 3.0238 2.02787 2.1006C1.82563 1.6387 1.69123 1.2559 1.60826 0.9683C1.56673 0.8243 1.5389 0.707 1.52179 0.6175C1.51326 0.5728 1.50777 0.5371 1.50452 0.5099C1.50431 0.5081 1.5041 0.5063 1.50391 0.5046C1.52761 0.502 1.5582 0.5 1.59684 0.5H3.35027C3.42937 0.5 3.47176 0.5085 3.49231 0.5148C3.5085 0.5197 3.51315 0.5237 3.51697 0.527C3.53667 0.5443 3.58551 0.6034 3.6674 0.82C4.10834 2.0343 4.70254 3.1758 5.26794 4.0211C5.54994 4.4429 5.83384 4.8044 6.09754 5.0669C6.22894 5.1977 6.36644 5.315 6.50634 5.4027C6.63744 5.485 6.81994 5.5727 7.02994 5.5727C7.11554 5.5727 7.24154 5.5641 7.37234 5.5066C7.51664 5.4431 7.62834 5.3373 7.70414 5.2053C7.83024 4.9859 7.84954 4.7023 7.84954 4.4345V1.9964V1.9867L7.84914 1.9771C7.82304 1.2999 7.60604 0.896 7.38144 0.6092C7.35034 0.5694 7.31964 0.5325 7.29184 0.5H9.82594C9.82804 0.5279 9.82944 0.5626 9.82944 0.6055V3.8945C9.82944 4.4097 10.134 4.8691 10.6231 4.8691C11.0753 4.8691 11.3979 4.5862 11.7837 4.2284L11.7963 4.2167L11.808 4.2042C12.4794 3.4899 13.0403 2.6004 13.4286 1.9045C13.6243 1.5538 13.7795 1.2462 13.886 1.0257C13.9393 0.9153 13.9805 0.8265 14.0087 0.7646C14.0228 0.7337 14.0337 0.7095 14.0411 0.6927L14.0498 0.6731L14.0507 0.6709C14.0841 0.599 14.1141 0.5657 14.1395 0.5475C14.1606 0.5324 14.2162 0.5 14.3546 0.5H16.0994Z" fill="#4092CE" stroke="#4092CE"/>
</svg>
