<svg width="280" height="52" viewBox="0 0 280 52" fill="none" xmlns="http://www.w3.org/2000/svg">
<g clip-path="url(#clip0)">
<path d="M66.6367 14.2214H67.9382V6.54358L71.409 11.0805H71.756L75.14 6.54358V14.2214H76.4415V4.27512H75.3135L71.6693 9.24828L67.9382 4.27512H66.6367V14.2214ZM79.4784 14.2214L85.4653 6.54358V14.2214H86.7669V4.27512H85.6389L79.6519 11.953V4.27512H78.3504V14.1342H79.4784V14.2214ZM95.9643 14.2214H97.2658V4.27512H95.9643V8.55029H90.064V4.27512H88.7625V14.1342H90.064V9.68452H95.9643V14.2214ZM100.389 14.2214L106.376 6.54358V14.2214H107.678V4.27512H106.55L100.563 11.953V4.27512H99.2614V14.1342H100.389V14.2214ZM117.396 11.7785C117.019 12.2104 116.55 12.5521 116.025 12.7785C115.499 13.005 114.93 13.1104 114.359 13.0872C113.851 13.1122 113.344 13.03 112.869 12.8459C112.395 12.6618 111.964 12.3799 111.604 12.0183C111.245 11.6567 110.964 11.2235 110.781 10.7464C110.598 10.2693 110.516 9.75902 110.541 9.24828C110.49 8.74646 110.548 8.23951 110.711 7.76234C110.874 7.28517 111.137 6.84913 111.483 6.48426C111.83 6.11938 112.251 5.83434 112.717 5.64877C113.184 5.46321 113.685 5.38153 114.186 5.40935C114.735 5.38926 115.283 5.48788 115.792 5.69858C116.301 5.90928 116.759 6.22716 117.136 6.63083L118.003 5.84559C117.321 5.08726 116.425 4.55475 115.436 4.31826C114.446 4.08177 113.408 4.15241 112.459 4.52087C111.511 4.88932 110.695 5.53829 110.12 6.38222C109.545 7.22615 109.238 8.22541 109.24 9.24828C109.196 9.92412 109.297 10.6015 109.534 11.2352C109.772 11.8689 110.141 12.4444 110.618 12.9233C111.094 13.4022 111.666 13.7734 112.296 14.0123C112.927 14.2512 113.6 14.3523 114.272 14.3087C114.998 14.3242 115.718 14.1755 116.379 13.8734C117.04 13.5714 117.625 13.1238 118.09 12.5637L117.396 11.7785ZM118.437 5.4966H121.821V14.2214H123.123V5.4966H126.593V4.27512H118.437V5.4966ZM127.635 14.2214H134.836V13H128.936V9.77177H134.316V8.63754H128.936V5.4966H134.75V4.27512H127.635V14.2214ZM137.786 14.2214V10.557H140.303C143.34 10.557 144.381 8.98653 144.381 7.41606C144.381 5.84559 143.6 4.27512 140.389 4.27512H136.572V14.1342L137.786 14.2214ZM140.389 5.4966C142.385 5.4966 143.079 6.28184 143.079 7.41606C143.079 8.55029 142.212 9.42278 140.303 9.42278H137.786V5.4966H140.389ZM153.491 11.7785C153.114 12.2104 152.646 12.5521 152.12 12.7785C151.595 13.005 151.026 13.1104 150.454 13.0872C149.947 13.1122 149.439 13.03 148.965 12.8459C148.49 12.6618 148.059 12.3799 147.7 12.0183C147.34 11.6567 147.06 11.2235 146.877 10.7464C146.694 10.2693 146.612 9.75902 146.637 9.24828C146.586 8.74646 146.644 8.23951 146.806 7.76234C146.969 7.28517 147.233 6.84913 147.579 6.48426C147.925 6.11938 148.346 5.83434 148.813 5.64877C149.279 5.46321 149.78 5.38153 150.281 5.40935C150.831 5.38926 151.379 5.48788 151.888 5.69858C152.397 5.90928 152.855 6.22716 153.231 6.63083L154.099 5.84559C153.416 5.08726 152.521 4.55475 151.531 4.31826C150.542 4.08177 149.504 4.15241 148.555 4.52087C147.606 4.88932 146.79 5.53829 146.216 6.38222C145.641 7.22615 145.334 8.22541 145.335 9.24828C145.292 9.92412 145.392 10.6015 145.63 11.2352C145.867 11.8689 146.237 12.4444 146.713 12.9233C147.189 13.4022 147.762 13.7734 148.392 14.0123C149.022 14.2512 149.696 14.3523 150.368 14.3087C151.093 14.3242 151.813 14.1755 152.474 13.8734C153.135 13.5714 153.72 13.1238 154.186 12.5637L153.491 11.7785ZM154.533 5.4966H157.917V14.2214H159.218V5.4966H162.689V4.27512H154.533V5.4966ZM163.73 14.2214H167.635C169.977 14.2214 171.539 13.4362 171.539 11.4295C171.583 10.892 171.431 10.3569 171.112 9.92359C170.793 9.49028 170.328 9.18829 169.804 9.07378C170.244 8.89228 170.616 8.57479 170.866 8.16709C171.115 7.7594 171.229 7.28256 171.192 6.80533C171.192 5.40935 170.411 4.36237 167.721 4.36237H163.73V14.2214ZM167.808 9.77177C169.543 9.77177 170.238 10.2953 170.238 11.3422C170.238 12.3892 169.457 13 167.635 13H165.031V9.77177H167.808ZM167.635 5.4966C169.37 5.4966 169.89 6.02009 169.89 7.06707C169.89 8.11405 169.11 8.63754 167.808 8.63754H165.031V5.4966H167.635ZM172.667 9.24828C172.653 9.91673 172.773 10.5812 173.021 11.2016C173.269 11.822 173.639 12.3855 174.109 12.8583C174.58 13.3311 175.14 13.7033 175.757 13.9526C176.374 14.2018 177.035 14.323 177.7 14.3087C178.362 14.3157 179.02 14.1896 179.634 13.9377C180.247 13.6859 180.805 13.3134 181.274 12.8421C181.742 12.3708 182.113 11.8102 182.363 11.1931C182.614 10.5759 182.739 9.91477 182.732 9.24828C182.732 7.90618 182.202 6.61904 181.258 5.67003C180.314 4.72102 179.034 4.18788 177.7 4.18788C176.365 4.18788 175.085 4.72102 174.141 5.67003C173.197 6.61904 172.667 7.90618 172.667 9.24828ZM173.969 9.24828C173.969 8.27641 174.353 7.34435 175.036 6.65714C175.719 5.96992 176.646 5.58385 177.613 5.58385C178.579 5.58385 179.506 5.96992 180.19 6.65714C180.873 7.34435 181.257 8.27641 181.257 9.24828C181.287 9.74549 181.215 10.2436 181.044 10.7113C180.874 11.1791 180.61 11.6065 180.267 11.9668C179.925 12.3271 179.513 12.6126 179.056 12.8054C178.6 12.9982 178.108 13.0941 177.613 13.0872C177.122 13.0793 176.637 12.9734 176.187 12.7755C175.737 12.5776 175.331 12.2918 174.992 11.9345C174.653 11.5773 174.388 11.1559 174.212 10.6947C174.036 10.2336 173.954 9.74188 173.969 9.24828ZM195.487 14.2214H196.789V4.27512H188.459V14.1342H189.76V5.40935H195.574L195.487 14.2214ZM200.172 14.2214V10.557H202.689C205.726 10.557 206.767 8.98653 206.767 7.41606C206.767 5.84559 205.986 4.27512 202.776 4.27512H198.958V14.1342L200.172 14.2214ZM202.776 5.4966C204.771 5.4966 205.465 6.28184 205.465 7.41606C205.465 8.55029 204.598 9.42278 202.689 9.42278H200.172V5.4966H202.776ZM209.283 14.2214L215.27 6.54358V14.2214H216.572V4.27512H215.444L209.457 11.953V4.27512H208.155V14.1342H209.283V14.2214ZM219.869 14.2214V10.557H222.385C225.422 10.557 226.463 8.98653 226.463 7.41606C226.463 5.84559 225.682 4.27512 222.472 4.27512H218.654V14.1342L219.869 14.2214ZM222.472 5.4966C224.467 5.4966 225.162 6.28184 225.162 7.41606C225.162 8.55029 224.294 9.42278 222.385 9.42278H219.869V5.4966H222.472ZM227.418 9.24828C227.403 9.91673 227.524 10.5812 227.772 11.2016C228.02 11.822 228.39 12.3855 228.86 12.8583C229.33 13.3311 229.891 13.7033 230.508 13.9526C231.125 14.2018 231.785 14.323 232.45 14.3087C233.113 14.3157 233.771 14.1896 234.384 13.9377C234.998 13.6859 235.555 13.3134 236.024 12.8421C236.493 12.3708 236.863 11.8102 237.114 11.1931C237.364 10.5759 237.49 9.91477 237.483 9.24828C237.483 7.90618 236.952 6.61904 236.009 5.67003C235.065 4.72102 233.785 4.18788 232.45 4.18788C231.115 4.18788 229.835 4.72102 228.892 5.67003C227.948 6.61904 227.418 7.90618 227.418 9.24828ZM228.719 9.24828C228.719 8.27641 229.103 7.34435 229.786 6.65714C230.47 5.96992 231.397 5.58385 232.363 5.58385C233.33 5.58385 234.257 5.96992 234.94 6.65714C235.624 7.34435 236.008 8.27641 236.008 9.24828C236.038 9.74549 235.965 10.2436 235.795 10.7113C235.624 11.1791 235.36 11.6065 235.018 11.9668C234.676 12.3271 234.264 12.6126 233.807 12.8054C233.35 12.9982 232.859 13.0941 232.363 13.0872C231.87 13.0865 231.382 12.9854 230.929 12.7901C230.476 12.5947 230.066 12.309 229.726 11.9503C229.385 11.5916 229.121 11.1672 228.948 10.7029C228.775 10.2385 228.697 9.74368 228.719 9.24828ZM237.917 16.0536H239.131V14.2214H246.94V16.0536H248.155V13H246.94V4.27512H240.259V5.4966C240.259 10.1208 239.392 12.302 238.958 13H237.917V16.0536ZM241.474 5.4966H245.639V13H240.346C241.122 10.9079 241.505 8.68898 241.474 6.45633V5.4966ZM256.485 14.2214H257.786V4.27512H256.485V8.55029H250.585V4.27512H249.283V14.1342H250.585V9.68452H256.485V14.2214ZM268.459 14.2214H269.76V4.27512H268.459V14.2214ZM263.253 9.16103C264.988 9.16103 265.943 9.77177 265.943 10.9932C265.943 12.3892 264.988 13 263.253 13H261.17V9.16103H263.253ZM261.084 4.27512H259.782V14.1342H263.079C265.682 14.1342 267.157 13.0872 267.157 10.906C267.157 9.07378 265.856 7.85231 263.166 7.85231H260.997L261.084 4.27512ZM279.739 4.27512H278.177L275.4 8.11405L272.624 4.27512H271.062L274.619 9.16103L270.975 14.2214H272.537L275.487 10.208L278.437 14.2214H279.999L276.355 9.16103L279.739 4.27512ZM67.8515 29.9261V26.2617H70.3677C73.4046 26.2617 74.4458 24.6912 74.4458 23.1208C74.4458 21.5503 73.6649 19.9798 70.4545 19.9798H66.6367V29.8389H67.8515V29.9261ZM70.4545 21.2013C72.4502 21.2013 73.1443 21.9865 73.1443 23.1208C73.1443 24.255 72.2766 25.1275 70.3677 25.1275H67.8515V21.2885H70.4545V21.2013ZM75.9209 29.9261H83.1226V28.7047H77.2224V25.4765H82.602V24.3422H77.2224V21.2885H83.0359V20.0671H75.9209V29.9261ZM92.4935 27.4832C92.1164 27.9151 91.6479 28.2568 91.1225 28.4832C90.597 28.7097 90.0279 28.8151 89.4567 28.7919C88.9487 28.8169 88.4412 28.7346 87.9668 28.5506C87.4924 28.3665 87.0615 28.0846 86.7019 27.723C86.3423 27.3614 86.062 26.9282 85.8789 26.4511C85.6958 25.974 85.6141 25.4637 85.6389 24.953C85.588 24.4512 85.6458 23.9442 85.8085 23.467C85.9711 22.9899 86.2347 22.5538 86.5811 22.189C86.9275 21.8241 87.3484 21.539 87.8149 21.3535C88.2813 21.1679 88.7823 21.0862 89.2831 21.114C89.8331 21.094 90.381 21.1926 90.8898 21.4033C91.3987 21.614 91.8568 21.9319 92.2332 22.3355L93.1009 21.5503C92.4183 20.792 91.5231 20.2594 90.5334 20.023C89.5438 19.7865 88.506 19.8571 87.5571 20.2256C86.6082 20.594 85.7925 21.243 85.2177 22.0869C84.643 22.9308 84.336 23.9301 84.3374 24.953C84.294 25.6288 84.3945 26.3062 84.6321 26.9399C84.8697 27.5736 85.2389 28.1491 85.7151 28.628C86.1914 29.1069 86.7637 29.4781 87.3939 29.717C88.0241 29.9559 88.6978 30.057 89.3699 30.0134C90.0956 30.0289 90.8156 29.8801 91.4764 29.5781C92.1373 29.2761 92.7221 28.8284 93.1877 28.2684L92.4935 27.4832ZM95.9643 29.4899C96.1003 29.6285 96.2624 29.7385 96.4412 29.8134C96.62 29.8883 96.8118 29.9266 97.0055 29.9261C98.0467 29.9261 98.7408 29.1409 99.435 27.6577L103.079 20.0671H101.778L98.8276 26.1745L94.923 20.0671H93.3612L98.1335 27.4832C97.7864 28.2684 97.3525 28.7919 97.0055 28.7919C96.8445 28.7889 96.6902 28.7269 96.5716 28.6174L95.9643 29.4899ZM105.335 29.9261V26.2617H107.851C110.888 26.2617 111.93 24.6912 111.93 23.1208C111.93 21.5503 111.149 19.9798 107.938 19.9798H104.12V29.8389H105.335V29.9261ZM107.938 21.2013C109.934 21.2013 110.628 21.9865 110.628 23.1208C110.628 24.255 109.76 25.1275 107.851 25.1275H105.335V21.2885H107.938V21.2013ZM121.04 27.4832C120.663 27.9151 120.195 28.2568 119.669 28.4832C119.144 28.7097 118.575 28.8151 118.003 28.7919C117.495 28.8169 116.988 28.7346 116.513 28.5506C116.039 28.3665 115.608 28.0846 115.249 27.723C114.889 27.3614 114.609 26.9282 114.426 26.4511C114.242 25.974 114.161 25.4637 114.186 24.953C114.135 24.4512 114.192 23.9442 114.355 23.467C114.518 22.9899 114.781 22.5538 115.128 22.189C115.474 21.8241 115.895 21.539 116.361 21.3535C116.828 21.1679 117.329 21.0862 117.83 21.114C118.38 21.094 118.928 21.1926 119.436 21.4033C119.945 21.614 120.403 21.9319 120.78 22.3355L121.648 21.5503C120.965 20.792 120.07 20.2594 119.08 20.023C118.09 19.7865 117.053 19.8571 116.104 20.2256C115.155 20.594 114.339 21.243 113.764 22.0869C113.19 22.9308 112.883 23.9301 112.884 24.953C112.841 25.6288 112.941 26.3062 113.179 26.9399C113.416 27.5736 113.786 28.1491 114.262 28.628C114.738 29.1069 115.31 29.4781 115.941 29.717C116.571 29.9559 117.244 30.057 117.917 30.0134C118.642 30.0289 119.362 29.8801 120.023 29.5781C120.684 29.2761 121.269 28.8284 121.734 28.2684L121.04 27.4832ZM122.515 24.953C122.501 25.6214 122.621 26.2859 122.869 26.9063C123.117 27.5267 123.487 28.0902 123.958 28.563C124.428 29.0358 124.988 29.408 125.605 29.6573C126.222 29.9065 126.883 30.0277 127.548 30.0134C128.211 30.0204 128.868 29.8943 129.482 29.6424C130.096 29.3906 130.653 29.0181 131.122 28.5468C131.591 28.0755 131.961 27.5149 132.211 26.8978C132.462 26.2806 132.587 25.6195 132.58 24.953C132.58 23.6109 132.05 22.3237 131.106 21.3747C130.163 20.4257 128.882 19.8926 127.548 19.8926C126.213 19.8926 124.933 20.4257 123.989 21.3747C123.045 22.3237 122.515 23.6109 122.515 24.953ZM123.817 24.953C123.817 23.9811 124.201 23.049 124.884 22.3618C125.568 21.6746 126.494 21.2885 127.461 21.2885C128.428 21.2885 129.354 21.6746 130.038 22.3618C130.721 23.049 131.105 23.9811 131.105 24.953C131.135 25.4502 131.063 25.9483 130.892 26.416C130.722 26.8838 130.458 27.3112 130.116 27.6715C129.774 28.0318 129.361 28.3173 128.905 28.5101C128.448 28.7029 127.956 28.7988 127.461 28.7919C126.97 28.784 126.485 28.6781 126.035 28.4802C125.585 28.2823 125.179 27.9965 124.84 27.6392C124.501 27.282 124.236 26.8606 124.06 26.3994C123.884 25.9383 123.802 25.4466 123.817 24.953ZM134.055 29.9261H137.96C140.303 29.9261 141.864 29.1409 141.864 27.1342C141.908 26.5967 141.756 26.0616 141.437 25.6283C141.118 25.195 140.653 24.893 140.129 24.7785C140.57 24.597 140.941 24.2795 141.191 23.8718C141.44 23.4641 141.555 22.9873 141.517 22.51C141.517 21.114 140.736 20.0671 138.047 20.0671H134.055V29.9261ZM138.133 25.4765C139.869 25.4765 140.563 26 140.563 27.0469C140.563 28.0939 139.782 28.7047 137.96 28.7047H135.357V25.4765H138.133ZM137.96 21.2013C139.695 21.2013 140.216 21.7248 140.216 22.7718C140.216 23.8187 139.435 24.3422 138.133 24.3422H135.357V21.2885L137.96 21.2013ZM148.806 29.9261L154.793 22.2483V29.9261H156.094V19.9798H154.966L148.979 27.6577V19.9798H147.678V29.8389L148.806 29.9261ZM164.164 25.4765H169.283C169.272 25.9424 169.168 26.4015 168.978 26.8265C168.788 27.2515 168.515 27.6339 168.175 27.951C167.835 28.2682 167.436 28.5137 167 28.6731C166.565 28.8325 166.102 28.9026 165.639 28.8791C165.036 28.8887 164.438 28.7692 163.884 28.5285C163.331 28.2878 162.835 27.9315 162.428 27.4832L161.561 28.1812C162.024 28.7997 162.629 29.297 163.323 29.6311C164.018 29.9652 164.782 30.1262 165.552 30.1006C168.763 30.1006 170.585 27.9194 170.585 24.953C170.585 21.9865 168.676 19.8926 165.639 19.8926C164.857 19.8673 164.08 20.0279 163.371 20.3615C162.663 20.695 162.042 21.192 161.561 21.812L162.428 22.5973C162.817 22.1444 163.296 21.7785 163.834 21.523C164.372 21.2676 164.957 21.1283 165.552 21.114C166.459 21.0411 167.359 21.3294 168.057 21.9169C168.755 22.5044 169.195 23.3441 169.283 24.255H164.164V25.4765ZM172.146 29.9261H173.448V26.3489L174.489 25.302L178.741 29.8389H180.389L175.444 24.4295L180.042 19.9798H178.394L173.448 24.7785V19.9798H172.146V29.9261ZM180.91 24.953C180.896 25.6214 181.016 26.2859 181.264 26.9063C181.512 27.5267 181.882 28.0902 182.352 28.563C182.823 29.0358 183.383 29.408 184 29.6573C184.617 29.9065 185.278 30.0277 185.943 30.0134C186.605 30.0204 187.263 29.8943 187.877 29.6424C188.49 29.3906 189.048 29.0181 189.517 28.5468C189.985 28.0755 190.356 27.5149 190.606 26.8978C190.857 26.2806 190.982 25.6195 190.975 24.953C190.975 23.6109 190.445 22.3237 189.501 21.3747C188.557 20.4257 187.277 19.8926 185.943 19.8926C184.608 19.8926 183.328 20.4257 182.384 21.3747C181.44 22.3237 180.91 23.6109 180.91 24.953ZM182.298 24.953C182.298 23.9811 182.682 23.049 183.366 22.3618C184.049 21.6746 184.976 21.2885 185.943 21.2885C186.909 21.2885 187.836 21.6746 188.519 22.3618C189.203 23.049 189.587 23.9811 189.587 24.953C189.617 25.4502 189.544 25.9483 189.374 26.416C189.204 26.8838 188.939 27.3112 188.597 27.6715C188.255 28.0318 187.843 28.3173 187.386 28.5101C186.929 28.7029 186.438 28.7988 185.943 28.7919C185.449 28.7912 184.961 28.6901 184.508 28.4948C184.055 28.2994 183.646 28.0137 183.305 27.655C182.965 27.2963 182.7 26.8719 182.527 26.4075C182.354 25.9432 182.276 25.4484 182.298 24.953ZM199.045 29.9261H200.346V19.9798H193.578V21.6375C193.578 28.1812 192.537 28.7919 191.496 28.7047V29.9261H192.103C193.491 29.9261 194.88 28.6174 194.88 21.812V21.2013H199.131L199.045 29.9261ZM201.821 24.953C201.807 25.6214 201.927 26.2859 202.175 26.9063C202.423 27.5267 202.793 28.0902 203.263 28.563C203.734 29.0358 204.294 29.408 204.911 29.6573C205.528 29.9065 206.189 30.0277 206.854 30.0134C207.516 30.0204 208.174 29.8943 208.788 29.6424C209.401 29.3906 209.959 29.0181 210.428 28.5468C210.896 28.0755 211.267 27.5149 211.517 26.8978C211.768 26.2806 211.893 25.6195 211.886 24.953C211.886 23.6109 211.356 22.3237 210.412 21.3747C209.468 20.4257 208.188 19.8926 206.854 19.8926C205.519 19.8926 204.239 20.4257 203.295 21.3747C202.351 22.3237 201.821 23.6109 201.821 24.953ZM203.123 24.953C203.123 23.9811 203.507 23.049 204.19 22.3618C204.873 21.6746 205.8 21.2885 206.767 21.2885C207.733 21.2885 208.66 21.6746 209.344 22.3618C210.027 23.049 210.411 23.9811 210.411 24.953C210.441 25.4502 210.369 25.9483 210.198 26.416C210.028 26.8838 209.764 27.3112 209.422 27.6715C209.079 28.0318 208.667 28.3173 208.21 28.5101C207.754 28.7029 207.262 28.7988 206.767 28.7919C206.276 28.784 205.791 28.6781 205.341 28.4802C204.891 28.2823 204.485 27.9965 204.146 27.6392C203.807 27.282 203.542 26.8606 203.366 26.3994C203.19 25.9383 203.108 25.4466 203.123 24.953ZM213.361 29.9261H214.663V21.2013H220.389V19.9798H213.361V29.9261ZM222.472 29.9261L228.459 22.2483V29.9261H229.76V19.9798H228.632L222.645 27.6577V19.9798H221.344V29.8389L222.472 29.9261ZM232.884 29.9261L238.871 22.2483V29.9261H240.172V19.9798H239.045L233.058 27.6577V19.9798H231.756V29.8389L232.884 29.9261ZM67.8515 45.6308V41.9664H70.3677C73.4046 41.9664 74.4458 40.3959 74.4458 38.8255C74.4458 37.255 73.6649 35.6845 70.4545 35.6845H66.6367V45.5436L67.8515 45.6308ZM70.4545 36.906C72.4502 36.906 73.1443 37.6912 73.1443 38.8255C73.1443 39.9597 72.2766 40.8322 70.3677 40.8322H67.8515V36.9932L70.4545 36.906ZM75.4003 40.6577C75.3861 41.3261 75.5065 41.9906 75.7544 42.611C76.0023 43.2314 76.3725 43.7949 76.8426 44.2677C77.3128 44.7405 77.8733 45.1127 78.4903 45.362C79.1073 45.6112 79.768 45.7323 80.4328 45.7181C81.0956 45.7251 81.7532 45.599 82.3669 45.3471C82.9806 45.0953 83.5382 44.7228 84.0069 44.2515C84.4756 43.7802 84.846 43.2196 85.0965 42.6025C85.3469 41.9853 85.4723 41.3242 85.4653 40.6577C85.4653 39.3156 84.9351 38.0284 83.9914 37.0794C83.0476 36.1304 81.7675 35.5973 80.4328 35.5973C79.0981 35.5973 77.8181 36.1304 76.8743 37.0794C75.9305 38.0284 75.4003 39.3156 75.4003 40.6577ZM76.7018 40.6577C76.7018 39.6858 77.0857 38.7537 77.7692 38.0665C78.4526 37.3793 79.3795 36.9932 80.346 36.9932C81.3126 36.9932 82.2395 37.3793 82.9229 38.0665C83.6064 38.7537 83.9903 39.6858 83.9903 40.6577C84.0202 41.1549 83.9477 41.6529 83.7774 42.1207C83.6072 42.5885 83.3427 43.0159 83.0007 43.3762C82.6587 43.7365 82.2463 44.022 81.7896 44.2148C81.3328 44.4076 80.8414 44.5035 80.346 44.4966C79.855 44.4887 79.3704 44.3828 78.9204 44.1849C78.4705 43.987 78.0641 43.7011 77.725 43.3439C77.3859 42.9867 77.1208 42.5653 76.9452 42.1041C76.7695 41.6429 76.6868 41.1513 76.7018 40.6577ZM94.576 43.1879C94.1988 43.6198 93.7303 43.9615 93.2049 44.1879C92.6794 44.4144 92.1103 44.5198 91.5391 44.4966C91.0312 44.5216 90.5237 44.4393 90.0492 44.2552C89.5748 44.0712 89.1439 43.7893 88.7843 43.4277C88.4248 43.0661 88.1444 42.6328 87.9613 42.1558C87.7783 41.6787 87.6965 41.1684 87.7213 40.6577C87.6704 40.1559 87.7282 39.6489 87.8909 39.1717C88.0536 38.6946 88.3172 38.2585 88.6635 37.8936C89.0099 37.5288 89.4308 37.2437 89.8973 37.0582C90.3638 36.8726 90.8647 36.7909 91.3656 36.8187C91.9155 36.7987 92.4634 36.8973 92.9723 37.108C93.4812 37.3187 93.9392 37.6366 94.3157 38.0402L95.1834 37.255C94.5007 36.4967 93.6055 35.9641 92.6159 35.7277C91.6262 35.4912 90.5885 35.5618 89.6395 35.9303C88.6906 36.2987 87.875 36.9477 87.3002 37.7916C86.7254 38.6355 86.4184 39.6348 86.4198 40.6577C86.3765 41.3335 86.4769 42.0109 86.7145 42.6446C86.9521 43.2783 87.3213 43.8538 87.7976 44.3327C88.2738 44.8116 88.8461 45.1828 89.4764 45.4217C90.1066 45.6606 90.7802 45.7616 91.4523 45.7181C92.1781 45.7336 92.898 45.5848 93.5589 45.2828C94.2197 44.9807 94.8046 44.5331 95.2701 43.9731L94.576 43.1879ZM104.207 43.1879C103.83 43.6198 103.362 43.9615 102.836 44.1879C102.311 44.4144 101.742 44.5198 101.17 44.4966C100.662 44.5216 100.155 44.4393 99.6805 44.2552C99.206 44.0712 98.7752 43.7893 98.4156 43.4277C98.056 43.0661 97.7756 42.6328 97.5926 42.1558C97.4095 41.6787 97.3277 41.1684 97.3526 40.6577C97.3016 40.1559 97.3595 39.6489 97.5221 39.1717C97.6848 38.6946 97.9484 38.2585 98.2948 37.8936C98.6411 37.5288 99.0621 37.2437 99.5285 37.0582C99.995 36.8726 100.496 36.7909 100.997 36.8187C101.547 36.7987 102.095 36.8973 102.604 37.108C103.112 37.3187 103.57 37.6366 103.947 38.0402L104.815 37.255C104.132 36.4967 103.237 35.9641 102.247 35.7277C101.257 35.4912 100.22 35.5618 99.2708 35.9303C98.3218 36.2987 97.5062 36.9477 96.9314 37.7916C96.3566 38.6355 96.0497 39.6348 96.051 40.6577C96.0077 41.3335 96.1082 42.0109 96.3457 42.6446C96.5833 43.2783 96.9526 43.8538 97.4288 44.3327C97.9051 44.8116 98.4774 45.1828 99.1076 45.4217C99.7378 45.6606 100.411 45.7616 101.084 45.7181C101.809 45.7336 102.529 45.5848 103.19 45.2828C103.851 44.9807 104.436 44.5331 104.901 43.9731L104.207 43.1879ZM107.331 45.6308L113.318 37.953V45.6308H114.619V35.6845H113.491L107.504 43.3624V35.6845H106.203V45.5436H107.331V45.6308ZM117.743 45.6308L123.73 37.953V45.6308H125.032V35.6845H123.904L117.917 43.3624V35.6845H116.615V45.5436H117.743V45.6308ZM118.264 32.9798C118.397 33.5775 118.745 34.1043 119.242 34.4588C119.739 34.8132 120.348 34.9702 120.953 34.8993C121.543 34.9423 122.129 34.7728 122.606 34.4211C123.083 34.0694 123.42 33.5585 123.556 32.9798H122.342C122.249 33.2659 122.059 33.5101 121.805 33.6696C121.551 33.8291 121.25 33.8938 120.953 33.8523C120.647 33.8832 120.339 33.8153 120.074 33.6584C119.809 33.5015 119.6 33.2639 119.478 32.9798H118.264ZM134.75 43.1879C134.372 43.6198 133.904 43.9615 133.378 44.1879C132.853 44.4144 132.284 44.5198 131.713 44.4966C131.205 44.5216 130.697 44.4393 130.223 44.2552C129.748 44.0712 129.317 43.7893 128.958 43.4277C128.598 43.0661 128.318 42.6328 128.135 42.1558C127.952 41.6787 127.87 41.1684 127.895 40.6577C127.844 40.1559 127.902 39.6489 128.064 39.1717C128.227 38.6946 128.491 38.2585 128.837 37.8936C129.183 37.5288 129.604 37.2437 130.071 37.0582C130.537 36.8726 131.038 36.7909 131.539 36.8187C132.089 36.7987 132.637 36.8973 133.146 37.108C133.655 37.3187 134.113 37.6366 134.489 38.0402L135.357 37.255C134.674 36.4967 133.779 35.9641 132.789 35.7277C131.8 35.4912 130.762 35.5618 129.813 35.9303C128.864 36.2987 128.048 36.9477 127.474 37.7916C126.899 38.6355 126.592 39.6348 126.593 40.6577C126.55 41.3335 126.65 42.0109 126.888 42.6446C127.126 43.2783 127.495 43.8538 127.971 44.3327C128.447 44.8116 129.02 45.1828 129.65 45.4217C130.28 45.6606 130.954 45.7616 131.626 45.7181C132.352 45.7336 133.072 45.5848 133.732 45.2828C134.393 44.9807 134.978 44.5331 135.444 43.9731L134.75 43.1879ZM136.832 45.6308H138.133V42.0536L139.175 41.0067L143.426 45.5436H145.075L140.129 40.1342L144.728 35.6845H143.079L138.133 40.4832V35.6845H136.832V45.6308ZM145.595 40.6577C145.581 41.3261 145.702 41.9906 145.95 42.611C146.198 43.2314 146.568 43.7949 147.038 44.2677C147.508 44.7405 148.068 45.1127 148.685 45.362C149.302 45.6112 149.963 45.7323 150.628 45.7181C151.291 45.7251 151.948 45.599 152.562 45.3471C153.176 45.0953 153.733 44.7228 154.202 44.2515C154.671 43.7802 155.041 43.2196 155.292 42.6025C155.542 41.9853 155.668 41.3242 155.661 40.6577C155.661 39.3156 155.13 38.0284 154.187 37.0794C153.243 36.1304 151.963 35.5973 150.628 35.5973C149.293 35.5973 148.013 36.1304 147.069 37.0794C146.126 38.0284 145.595 39.3156 145.595 40.6577ZM146.897 40.6577C146.897 39.6858 147.281 38.7537 147.964 38.0665C148.648 37.3793 149.575 36.9932 150.541 36.9932C151.508 36.9932 152.435 37.3793 153.118 38.0665C153.802 38.7537 154.186 39.6858 154.186 40.6577C154.215 41.1549 154.143 41.6529 153.973 42.1207C153.802 42.5885 153.538 43.0159 153.196 43.3762C152.854 43.7365 152.442 44.022 151.985 44.2148C151.528 44.4076 151.037 44.5035 150.541 44.4966C150.048 44.4959 149.56 44.3948 149.107 44.1994C148.654 44.004 148.244 43.7184 147.904 43.3597C147.563 43.001 147.299 42.5766 147.126 42.1122C146.952 41.6479 146.875 41.1531 146.897 40.6577ZM158.177 45.6308L164.164 37.953V45.6308H165.465V35.6845H164.337L158.35 43.3624V35.6845H157.049V45.5436H158.177V45.6308ZM158.611 32.9798C158.744 33.5775 159.092 34.1043 159.589 34.4588C160.086 34.8132 160.695 34.9702 161.3 34.8993C161.89 34.9423 162.476 34.7728 162.953 34.4211C163.43 34.0694 163.767 33.5585 163.904 32.9798H162.689C162.596 33.2659 162.406 33.5101 162.152 33.6696C161.898 33.8291 161.597 33.8938 161.3 33.8523C160.994 33.8832 160.686 33.8153 160.421 33.6584C160.156 33.5015 159.947 33.2639 159.825 32.9798H158.611ZM176.051 45.8053H177.353V44.5838H177.439C180.476 44.5838 182.385 43.0134 182.385 40.4832C182.385 37.6912 180.129 36.3825 177.439 36.3825V35.4228H176.138V36.4697C173.188 36.4697 171.192 37.8657 171.192 40.5704C171.192 43.1006 173.014 44.6711 176.138 44.6711H176.225L176.051 45.8053ZM177.353 37.604C179.782 37.604 180.997 38.7382 180.997 40.4832C180.997 42.4026 179.608 43.3624 177.439 43.3624H177.353V37.604ZM172.407 40.5704C172.407 38.5637 173.969 37.6912 176.051 37.6912V43.4496H175.964C173.708 43.4496 172.407 42.2281 172.407 40.5704ZM183.773 45.6308H190.975V44.4093H185.075V41.1812H190.454V40.0469H185.075V36.9932H190.888V35.7718H183.773V45.6308ZM191.669 47.463H192.884V45.6308H200.693V47.463H201.908V44.4093H200.693V35.6845H194.012V36.906C194.012 41.5302 193.144 43.7114 192.71 44.4093H191.669V47.463ZM195.227 36.906H199.392V44.4093H194.099C194.875 42.3173 195.257 40.0984 195.227 37.8657V36.906ZM203.123 45.6308H210.324V44.4093H204.424V41.1812H209.804V40.0469H204.424V36.9932H210.238V35.7718H203.123V45.6308ZM213.361 45.6308V41.9664H215.877C218.914 41.9664 219.956 40.3959 219.956 38.8255C219.956 37.255 219.175 35.6845 215.964 35.6845H212.146V45.5436L213.361 45.6308ZM215.964 36.906C217.96 36.906 218.654 37.6912 218.654 38.8255C218.654 39.9597 217.786 40.8322 215.877 40.8322H213.361V36.9932L215.964 36.906ZM220.303 45.6308H221.604L222.645 43.1006H227.504L228.632 45.6308H229.934L225.595 35.6845H224.554L220.303 45.6308ZM225.162 37.5167L227.071 42.0536H223.166L225.162 37.5167ZM231.062 45.6308H239.131V47.463H240.346V44.4093H239.131V35.6845H237.83V44.4093H232.363V35.6845H231.062V45.6308ZM242.602 45.6308L248.589 37.953V45.6308H249.891V35.6845H248.762L242.776 43.3624V35.6845H241.474V45.5436H242.602V45.6308ZM253.014 45.6308L259.001 37.953V45.6308H260.303V35.6845H259.175L253.188 43.3624V35.6845H251.886V45.5436H253.014V45.6308Z" fill="#666666"/>
<path d="M44.0781 36.6444C44.7068 37.2096 45.4564 37.6216 46.269 37.8486C47.0815 38.0755 47.9351 38.1113 48.7636 37.9531C49.3148 36.8876 49.7791 35.7788 50.1519 34.6377C49.1974 34.8994 46.7679 34.4632 44.0781 36.6444Z" fill="#6EB469"/>
<path d="M6.16071 37.255C7.54899 36.8188 8.93728 36.4698 10.3256 36.1208C13.475 35.3232 16.7091 34.9131 19.9568 34.8993C22.3863 34.8121 34.7073 35.51 37.7442 34.8121C42.1694 33.8523 47.8093 33.1543 48.8505 32.8926C49.5061 32.7057 50.1726 32.56 50.8462 32.4564C50.9455 32.1754 51.0039 31.8816 51.0197 31.5839L49.5447 31.8456C46.881 32.1697 44.1789 31.8711 41.6488 30.9731C38.5251 30.0134 33.7529 30.4496 30.9763 31.1476C24.2342 32.5111 17.3762 33.2124 10.4991 33.2416C6.24747 33.1543 3.81797 36.1208 2.42969 37.0805C2.60322 37.5168 2.86353 37.953 3.03706 38.302C3.99151 38.0402 5.11949 37.604 6.16071 37.255Z" fill="#8BC187"/>
<path d="M47.4615 39.6106C44.5114 38.0402 39.2186 36.9059 33.2316 36.6442C31.3227 36.5569 28.8932 37.3422 26.9843 37.5167C24.121 37.6912 22.1253 36.9932 18.6546 37.2549C15.7792 37.6123 12.9361 38.1957 10.1513 38.9999C8.32921 39.4361 6.59386 40.0469 4.8585 40.4831L4.33789 40.6576C4.4028 40.7889 4.49102 40.9072 4.59819 41.0066C4.77173 41.0066 4.94527 40.9194 5.1188 40.9194C6.42032 40.6576 7.72184 40.4831 9.02336 40.2214C15.1839 38.8254 23.5136 38.6509 25.3357 38.6509C29.0667 38.5637 35.5743 39.1744 37.2229 39.3489C38.8715 39.5234 40.5201 39.7851 42.0819 40.1341C43.6437 40.4831 45.2056 40.9194 46.7674 41.2684C47.1158 40.7943 47.4346 40.299 47.7218 39.7851C47.7218 39.6979 47.5483 39.6106 47.4615 39.6106Z" fill="#569950"/>
<path d="M43.9037 44.5838C43.2963 44.5838 42.7757 44.4966 42.1683 44.4966C41.3006 44.4966 40.4329 44.5838 39.5653 44.5838C38.3505 44.6711 37.1358 44.5838 35.921 44.7583C34.0121 45.0201 32.1032 45.2818 30.2811 45.7181C28.2385 46.1995 26.3366 47.1558 24.728 48.51C23.6867 49.3825 22.2985 49.7315 20.3028 50.0805C19.869 50.1677 18.6542 50.4295 17.4395 50.604C20.0876 51.5396 22.8756 52.0118 25.6824 51.9999C29.0561 52.0346 32.4032 51.3971 35.5306 50.1242C38.658 48.8513 41.5037 46.9683 43.9037 44.5838Z" fill="#4C84B9"/>
<path d="M29.8473 43.6241C31.3496 43.1707 32.8883 42.8495 34.446 42.6644C36.5284 42.4026 38.6109 42.4026 40.7801 42.3154C42.0816 42.3154 43.3831 42.4899 44.6846 42.4899C44.9449 42.4899 45.1185 42.2281 45.292 42.1409C44.6243 41.8887 43.9219 41.7416 43.2096 41.7046C41.8208 41.7637 40.4298 41.7346 39.0447 41.6174L33.7519 41.0939C32.5371 40.9194 31.2356 40.8322 30.0208 40.7449C26.7237 40.6577 23.4265 40.4832 20.1293 40.5704C17.5334 40.5355 14.9507 40.9486 12.4937 41.7919C10.6716 42.4026 8.84947 43.1879 7.02734 43.8858C8.94879 45.909 11.174 47.6165 13.6217 48.9462C14.8829 48.7772 16.13 48.5147 17.3527 48.161C20.0629 47.3457 22.7277 46.3845 25.3354 45.2818C26.8972 44.7583 28.3722 44.0603 29.8473 43.6241Z" fill="#72B995"/>
<path d="M16.0525 30.9732C19.1761 30.1879 22.213 29.3154 25.2499 28.2685C29.0617 27.064 33.0646 26.5905 37.0503 26.8725C38.8724 26.8725 44.5991 27.745 46.0742 27.9195C43.5022 26.7934 40.8292 25.9169 38.0915 25.302C33.3193 24.3423 28.8074 22.7718 23.8616 21.8121C17.354 20.5906 8.33014 22.3356 6.68155 22.5101C4.42558 22.8591 2.25638 23.2953 0.0871858 23.7315C0.0132691 24.4853 -0.0157053 25.2428 0.000417906 26C0.0264702 27.9053 0.229815 29.804 0.607793 31.6711C5.75478 32.3981 10.9911 32.1615 16.0525 30.9732Z" fill="#518E4C"/>
<path d="M51.7131 25.3893C49.0233 22.7718 41.4745 18.7584 34.9669 17.8859C32.3639 17.5369 23.7739 17.2752 22.2988 17.1879C20.4767 17.1879 14.0559 15.6174 9.54393 16.8389C6.40733 17.8647 3.36015 19.1487 0.433301 20.6778C0.342021 20.9609 0.283785 21.2537 0.259766 21.5503C2.94957 21.1141 5.72614 20.5906 8.41595 20.1544C10.2381 19.8926 11.9734 19.7181 13.7956 19.5436C15.6177 19.3691 17.353 19.1074 19.1752 19.1074C22.212 19.1074 25.3357 18.9329 28.3726 19.5436C30.1947 19.8926 31.93 20.1544 33.7522 20.5033C37.139 21.3084 40.4718 22.3284 43.7305 23.557C45.8035 24.3158 47.7832 25.3111 49.6307 26.5235C50.3248 26.9597 51.019 27.3087 51.7131 27.745V25.3893Z" fill="#80C0B5"/>
<path d="M40.8672 15.8793V16.0538C40.9015 16.0868 40.9426 16.1117 40.9876 16.1268C41.0326 16.1419 41.0804 16.1468 41.1275 16.1411C43.6897 16.7614 46.0135 18.127 47.8086 20.0672C48.8026 21.2948 50.0848 22.2543 51.5396 22.8592H51.6264C51.3577 20.9914 50.9221 19.1517 50.3249 17.3625C49.544 16.839 47.2012 14.5706 40.8672 15.8793Z" fill="#64A0D5"/>
<path d="M11.974 14.5705C13.449 14.6577 17.4403 14.2215 22.3861 14.4832C26.5372 14.9002 30.7108 15.0459 34.8807 14.9195C39.5661 14.6577 48.0694 12.9128 48.1562 12.9128C47.6356 12.0403 47.115 11.255 46.5943 10.4698C45.0325 10.2081 35.6616 7.85235 26.4642 9.94631C21.0837 11.5163 15.4251 11.8738 9.89153 10.9933C8.50324 10.7315 6.94142 10.3826 5.3796 10.0336C4.69404 10.9292 4.05682 11.8612 3.4707 12.8255C5.72667 14.1342 9.63122 14.4832 11.974 14.5705Z" fill="#5A9E50"/>
<path d="M10.8462 9.07397C13.0782 9.09515 15.3095 8.9786 17.5273 8.72498C20.3907 8.55048 22.3863 8.63773 25.3364 8.55048C29.6748 8.37598 36.0957 6.80551 39.4796 6.89276C41.0071 6.83772 42.5329 7.04424 43.9915 7.5035C42.9256 6.47239 41.7953 5.5107 40.6076 4.62431C38.4384 4.36256 35.228 5.75853 31.0631 6.45652C26.8995 7.13274 22.6972 7.54073 18.4818 7.678C15.0576 7.66401 11.6379 7.43087 8.24317 6.98001C7.63579 7.5035 7.11519 8.11424 6.50781 8.72498C7.8961 8.81223 9.37115 8.98672 10.8462 9.07397Z" fill="#4C84B9"/>
<path d="M21.6928 6.02024C31.9314 5.75849 34.7079 2.96655 37.5713 2.79205C33.9359 0.957816 29.925 0.0018242 25.8576 0.000104887C20.2495 -0.0160026 14.7918 1.82352 10.3262 5.235C14.0946 5.73944 17.8912 6.00171 21.6928 6.02024Z" fill="#8BC187"/>
</g>
<defs>
<clipPath id="clip0">
<rect width="280" height="52" fill="white"/>
</clipPath>
</defs>
</svg>
