<svg width="80" height="80" viewBox="0 0 80 80" fill="none" xmlns="http://www.w3.org/2000/svg">
<path fill-rule="evenodd" clip-rule="evenodd" d="M8.22307 74.1428C8.10864 73.9222 31.8207 60.7574 34.5994 59.3419L36.9764 57.9456L39.3998 56.7905L40.965 56.1549L44.5666 54.7679C55.0777 50.7203 70.4695 53.338 71.7196 74.0707L63.4455 74.0807C63.2325 74.0809 61.0819 74.0463 61.0678 73.9978C59.4094 68.3044 55.1924 63.7133 50.8142 62.9028L49.5615 62.6709C49.0226 62.5711 48.3066 62.5497 48.1051 62.5463C34.3661 62.3075 21.3122 72.7452 8.22307 74.1428V74.1428Z" fill="#004F84"/>
<path fill-rule="evenodd" clip-rule="evenodd" d="M58.2635 74.2571C58.2548 74.3546 56.4604 73.0244 56.0281 72.7493C54.964 72.072 53.6028 70.7 48.9842 69.8808C43.3227 68.8767 19.9826 74.2448 20 74.1849C20.6618 71.8846 39.3675 66.5122 41.447 66.2666C43.6013 66.0121 46.0208 65.7501 48.1811 65.9109C51.4308 66.1529 58.075 68.7214 58.2635 74.2571V74.2571Z" fill="#004F84"/>
<path fill-rule="evenodd" clip-rule="evenodd" d="M40.5638 6.13843C61.2727 6.17541 76.0276 21.8822 78.0713 42.122C78.5386 46.7495 77.6537 60.4084 72.674 67.4901C72.3462 67.9563 74.7372 63.6228 76.1336 58.3937C77.687 52.5773 78.2948 45.6729 77.1179 39.7282C76.8178 38.2118 75.9615 35.5465 75.4721 34.0259C75.1511 33.0287 74.8465 32.1268 74.3994 31.1659L72.3783 26.8226C71.8189 25.6202 71.1047 24.5961 70.2593 23.3689C67.6839 19.6306 63.897 15.7193 59.6104 12.9616C55.3621 10.2284 50.699 8.61396 46.4377 8.03224C44.8589 7.81674 43.2758 7.78183 41.8722 7.70988C40.1922 7.62384 37.1723 7.91892 34.0803 8.72918C31.4432 9.42025 28.8049 10.6669 26.8559 11.568C26.257 11.8449 23.2067 13.7601 22.6885 14.1515L21.116 15.3391C18.8294 17.066 16.9739 19.2513 15.1697 21.2787C12.9676 23.753 11.2845 26.3492 10.276 28.827L9.31777 31.1816L8.39234 33.4554C8.14418 34.0652 7.33662 37.4144 7.29351 37.6863L6.96786 39.7364L6.77456 41.8298L6.72681 44.1267L6.86762 46.5458L7.3209 49.5146C7.87492 51.1905 8.38981 53.2728 9.14905 54.8198C14.8468 66.4294 22.6795 58.4951 10.1757 66.3685C8.43191 64.4442 7.90117 63.5276 6.58992 61.3558C4.54792 57.9736 2.39798 49.9817 2.20757 45.7844C2.13593 44.2055 2.21145 41.4125 2.45011 39.649C3.04355 35.2637 4.24483 31.5615 5.83283 28.0651C7.8162 23.6984 12.5358 18.4452 16.03 15.3753C22.5504 9.64664 30.8106 6.12101 40.5638 6.13843V6.13843Z" fill="#004F84" stroke="#004F84" stroke-width="0.5669"/>
<path fill-rule="evenodd" clip-rule="evenodd" d="M33.6005 32.94C35.9586 32.9796 38.272 32.5225 40.6008 31.9902C41.6581 31.8011 42.3646 30.8177 43.3949 30.5354C42.2411 22.2917 47.2862 18.4366 49.1363 13.9509C50.8514 14.4571 52.5901 16.2443 54.2081 19.3613C54.8968 20.6882 52.4355 25.517 53.8977 29.8495C54.8615 30.1319 55.7651 30.5068 56.6085 30.9744C58.7887 31.6221 60.9948 31.6491 63.1828 31.1447C66.0266 30.489 66.767 31.3068 68.8166 32.4751C68.9879 32.5728 69.267 32.7092 69.4649 32.8035C69.8558 32.9895 70.1321 33.1144 70.5477 33.2735C71.074 33.474 71.78 33.7011 70.4196 33.7176C69.9471 33.7233 69.475 33.723 69.0014 33.7954C67.4512 34.0928 65.9042 34.3452 64.2395 34.1082C62.3069 33.8331 61.1327 34.2005 59.8838 34.3416C58.1382 34.5387 56.3652 34.8903 54.6021 35.3741C53.757 35.5681 53.1417 35.9941 52.7563 36.6521C52.3528 39.286 52.0674 41.8739 51.9002 44.4158C52.1455 45.9126 52.4317 47.7063 51.8611 48.7764C50.1992 51.8938 48.5197 54.7721 46.4851 57.7761C46.1436 58.2801 45.6614 58.259 45.5714 57.9348C44.6869 54.7555 43.9146 51.2984 42.7074 48.2062C42.64 47.8057 42.5377 47.6833 42.9407 47.2838C42.585 47.0429 42.5221 46.8027 42.752 46.563C43.8977 46.3142 44.2707 46.2303 44.4814 46.0854C43.9125 46.1055 43.2798 46.199 42.9666 45.9229C42.636 45.6556 42.5399 45.3886 42.6783 45.122C42.9453 44.9525 43.312 44.9463 43.6932 44.9634C43.8144 44.7788 44.1542 44.5696 43.3988 44.4827C43.1964 44.4823 42.994 44.4821 42.7917 44.4817C42.3773 44.2407 42.3144 44.0005 42.603 43.7609C43.066 43.6744 43.2372 43.5413 43.1166 43.3614C43.0927 43.2154 42.8913 43.1617 42.5125 43.2004C42.3913 43.0136 42.1446 42.8261 42.5231 42.6401C43.0945 42.6534 43.4333 42.5739 43.5396 42.4015C43.348 42.2411 43.0973 42.0803 42.4357 41.9195C42.1723 41.6663 42.1416 41.5061 42.3436 41.439C42.6458 41.5053 42.9498 41.4791 43.2558 41.3604C43.1893 41.2072 42.8878 41.1 42.3512 41.0388C42.1676 40.8518 41.796 40.6642 42.3619 40.4784C42.6816 40.4719 42.8849 40.4188 42.9721 40.3193C42.8637 40.1877 42.88 40.0315 42.2699 39.998C41.922 39.8105 42.0134 39.6239 42.3684 39.4378C42.5723 39.358 42.6883 39.2781 42.8922 39.1984C42.7489 39.1201 42.7308 39.0171 42.0858 39.0371C42.2812 38.5788 42.169 38.0626 42.0101 37.6971C38.3519 36.5702 35.3938 35.3414 32.5703 33.899C33.1973 33.8488 33.7871 33.7587 34.2966 33.5814C34.0646 33.3676 33.8325 33.1538 33.6005 32.94V32.94Z" fill="#602D01"/>
<path fill-rule="evenodd" clip-rule="evenodd" d="M49.9029 16.1302C50.2137 17.4396 51.8704 17.778 52.5201 19.0046C52.6142 19.1827 52.0161 19.3129 51.8378 19.1833C51.0319 18.5978 50.6502 17.7015 49.8796 17.0859C49.7658 16.9951 48.9482 17.2762 49.0303 17.3869C49.5272 18.0566 50.4161 18.3586 50.8862 19.0406C50.979 19.1752 51.0028 19.3528 50.8409 19.2715C50.1729 18.9354 49.8239 18.2521 49.1251 17.9597C48.928 17.8773 48.5933 18.2332 48.7167 18.3823C49.0953 18.8399 49.9223 18.9593 50.3212 19.4052C50.4443 19.5427 50.1935 19.5752 49.9946 19.521C49.4312 19.3669 49.2112 19.1121 48.652 18.9485C48.4673 18.8945 47.9011 19.2357 48.0201 19.362C48.3339 19.695 49.0504 19.7501 49.3538 20.0892C49.4577 20.2052 49.5215 20.2203 49.3478 20.1924C48.6821 20.0855 48.2876 19.8339 47.6117 19.7846C47.3253 19.7638 46.8318 20.1407 47.0377 20.3039C47.6167 20.7627 48.6105 20.7058 49.2636 21.0938C49.4067 21.1787 49.128 21.4768 48.9555 21.4431C48.2222 21.2996 47.6595 20.7658 46.9226 20.6353C46.716 20.5987 46.321 20.8971 46.4853 21.0051C47.0272 21.3614 47.8609 21.3044 48.4329 21.6283C48.5661 21.7038 48.3186 21.975 48.1581 21.9531C47.5727 21.8733 47.1213 21.385 46.5282 21.3688C46.2958 21.3624 46.1141 21.7949 46.3053 21.9026C47.02 22.3048 48.05 22.2159 48.7591 22.6243C48.9503 22.7344 48.499 22.8813 48.2654 22.8625C47.5214 22.8021 46.9272 22.3996 46.1797 22.4145C45.8654 22.4207 45.518 22.9284 45.7564 23.0951C46.4455 23.577 47.5603 23.4699 48.3015 23.8982C48.4844 24.0039 48.1553 24.1794 47.9354 24.1416C47.1373 24.0044 46.5466 23.5255 45.7355 23.4562C45.4478 23.4316 45.4094 23.9718 45.5994 24.1487C45.9633 24.4873 46.9436 24.2982 47.1016 24.7277C47.3565 25.4205 47.1076 26.2635 46.5947 26.8528C46.1928 27.3146 45.2418 27.2006 44.6682 27.5231C44.5363 27.5974 44.5734 27.8428 44.7097 27.9127C44.9627 28.0423 45.7407 27.7884 45.6004 28.0011C45.3967 28.3097 44.7146 28.1559 44.394 28.3909C44.2695 28.4821 44.3783 28.727 44.5312 28.7844C44.8897 28.9188 45.7669 28.5694 45.7092 28.8847C45.6424 29.2502 44.6848 28.9874 44.4375 29.2976C44.2864 29.487 44.6937 29.7452 44.9503 29.8359C45.1543 29.9079 45.7203 29.5581 45.5976 29.7074C45.0354 30.3914 45.7351 30.5088 46.25 30.0446C47.3065 29.092 47.6365 27.7411 48.2434 26.5588C49.0194 25.0474 49.2282 23.3029 50.3969 21.9679C51.172 21.0828 53.7877 21.127 53.8677 20.0427C54.034 17.7907 49.329 13.7129 49.9029 16.1302V16.1302Z" fill="#834B16"/>
<path fill-rule="evenodd" clip-rule="evenodd" d="M15.8674 26.3517C18.4547 26.4582 21.0063 26.0063 23.5769 25.4704C24.7425 25.2859 25.5444 24.2012 26.6828 23.9116C25.6375 14.6315 31.2787 10.4388 33.4297 5.45453C35.2987 6.0676 37.1593 8.11877 38.8517 11.6587C39.572 13.1657 36.7409 18.5189 38.2297 23.4185C39.28 23.7608 40.2618 24.2053 41.175 24.7522C43.5507 25.5363 45.9716 25.6247 48.3867 25.1164C52.0967 24.3355 52.8497 25.8585 54.6896 26.8859C55.2455 27.1963 55.7669 27.4904 56.3931 27.7253C57.2227 28.0368 57.9918 28.2575 56.2613 28.1938C55.7427 28.1747 55.2243 28.175 54.7025 28.2438C52.993 28.5367 51.2881 28.7792 49.4671 28.4694C47.3532 28.1098 46.0545 28.4911 44.6798 28.6166C42.7585 28.7917 40.8029 29.1395 38.8547 29.636C37.9218 29.8313 37.235 30.2931 36.7944 31.0213C36.2808 33.966 35.8981 36.8622 35.6464 39.7098C35.8755 41.3957 36.1416 43.4159 35.4866 44.6015C33.5787 48.0555 31.6581 51.2409 29.3442 54.5578C28.9558 55.1143 28.4271 55.078 28.3369 54.7118C27.4514 51.1213 26.6964 47.222 25.4543 43.7206C25.391 43.2695 25.282 43.1294 25.7351 42.6918C25.351 42.4122 25.2884 42.141 25.5473 41.8781C26.8115 41.6291 27.2232 41.5448 27.4584 41.3877C26.8334 41.3953 26.1363 41.4835 25.8 41.1656C25.4443 40.8569 25.346 40.5548 25.505 40.2593C25.8026 40.0762 26.2053 40.0789 26.6233 40.1081C26.7613 39.9041 27.1398 39.6784 26.313 39.5609C26.0909 39.5553 25.8687 39.5496 25.6466 39.5439C25.1983 39.2627 25.1357 38.9914 25.4589 38.7302C25.9694 38.6454 26.1609 38.5005 26.0333 38.2955C26.011 38.131 25.7914 38.0655 25.3745 38.0989C25.2465 37.8861 24.9808 37.6693 25.4013 37.4705C26.0281 37.5005 26.4021 37.4202 26.5234 37.2296C26.3174 37.0445 26.0466 36.8576 25.3246 36.6596C25.0423 36.3686 25.0129 36.1881 25.2364 36.1181C25.5663 36.2005 25.9008 36.1791 26.2399 36.0539C26.1709 35.8803 25.8428 35.7521 25.2555 35.6692C25.0589 35.4546 24.6561 35.2343 25.2823 35.0408C25.6333 35.0418 25.858 34.9877 25.9563 34.8783C25.8409 34.7279 25.8629 34.5529 25.1941 34.4993C24.8173 34.2798 24.9226 34.0728 25.3173 33.8733C25.5432 33.7892 25.6728 33.7026 25.8987 33.6185C25.7435 33.5269 25.7264 33.4109 25.0178 33.4163C25.2447 32.9072 25.1353 32.3251 24.9707 31.9108C20.9855 30.5501 17.7715 29.0934 14.7109 27.4006C15.4005 27.3608 16.0503 27.2753 16.6143 27.0898C16.3654 26.8437 16.1164 26.5977 15.8674 26.3517V26.3517Z" fill="#151616" stroke="black" stroke-width="0.216"/>
<path fill-rule="evenodd" clip-rule="evenodd" d="M26.8465 23.6651C26.869 23.5234 26.8524 23.3887 26.8581 23.2569C26.8843 22.6659 26.7934 22.0883 26.7695 21.4999C28.2339 21.091 29.3839 20.2677 30.2112 19.026C30.9033 17.9871 31.4571 16.8886 32.0628 15.7268C33.2469 13.4559 35.3556 12.0093 38.0968 11.2844C38.4222 11.8568 38.8477 12.4821 38.6116 13.3138C38.3988 14.0631 38.3899 14.8382 38.192 15.5903C38.0869 16.4223 37.9014 17.1632 37.832 17.8481C37.6408 19.7328 37.5194 21.1149 37.8324 22.6899C35.319 21.6001 31.7447 22.1268 26.8466 23.6651H26.8465Z" fill="white"/>
<path fill-rule="evenodd" clip-rule="evenodd" d="M30.4414 14.9421C31.8453 14.5425 32.7735 13.1785 33.7218 9.05396C32.6283 11.0167 31.5349 12.9794 30.4414 14.9421Z" fill="white"/>
<path fill-rule="evenodd" clip-rule="evenodd" d="M35.2513 42.5013C35.0999 41.3344 35.0898 40.1735 35.2719 39.0132C35.6922 36.3349 36.0564 33.6509 36.4487 30.9698C35.5336 31.4559 34.4549 31.7029 33.284 31.8153C34.7529 31.3986 35.866 30.8254 36.6238 30.0957C36.8269 29.6069 37.0302 29.1181 37.2334 28.6293C35.7123 28.1965 35.2276 27.566 34.7264 26.9385C35.5825 27.5396 36.4962 28.1148 37.8166 28.5083C37.9865 28.7603 38.1564 29.0123 38.3265 29.2643C41.4436 28.7197 44.5607 28.1751 47.6779 27.6305C49.3156 28.052 50.9811 28.2447 52.7558 28.0747C53.9359 27.9616 54.0659 27.7038 53.342 27.1297C52.9424 26.8128 52.5209 26.5383 51.6695 26.5335C50.4532 26.5265 48.5993 26.6635 47.7252 25.8187C47.4081 25.5628 46.9921 25.4871 46.478 25.5916C44.4733 25.701 42.5423 25.5188 40.7645 24.779C40.1944 24.5418 39.9106 24.2376 38.9632 23.8883C38.8177 23.8347 38.6759 23.7725 38.5426 23.6938C37.6259 24.1463 36.4568 24.3051 35.2798 24.4541C36.3944 24.1376 37.3955 23.7998 37.6082 23.3106C35.3081 22 31.4401 22.4977 26.8452 23.8335C27.7781 24.193 28.8152 24.4349 29.9384 24.5794C28.7492 24.5762 27.5635 24.4929 26.3904 24.123C25.5335 24.4792 24.9413 24.9296 24.5298 25.4445C23.8885 25.6005 23.2471 25.7566 22.6056 25.9125C21.7694 26.311 21.9752 26.5456 22.3299 26.7564C22.963 27.0398 23.6883 27.2892 24.5054 27.504C23.3647 27.9986 22.1217 28.312 20.7285 28.3598C21.3218 29.2737 22.2502 29.7943 23.5132 29.9211C24.5731 28.7739 25.9486 28.1623 28.0189 28.7286C29.1524 28.2926 30.1744 28.3548 31.1928 28.4328C30.2142 28.5305 29.2357 28.6357 28.2466 28.9548C27.7654 29.5823 27.2841 30.2099 26.8027 30.8373C27.4349 31.8946 28.6034 32.1105 30.0156 31.9436C28.6756 32.3343 27.3898 32.3396 26.1825 31.7814C25.6208 31.6832 25.2299 32.0066 25.6889 32.1796C27.4918 32.8593 29.0805 33.2291 30.4386 33.8783C30.796 36.1366 31.4129 38.2684 32.2912 40.3033C32.648 41.1299 33.9214 41.8143 35.2513 42.5013V42.5013Z" fill="white"/>
<path fill-rule="evenodd" clip-rule="evenodd" d="M37.8887 32.7786C37.1732 33.5024 37.5272 33.4353 37.6272 33.8026C37.7273 34.1698 38.0139 34.7174 38.4447 34.8166C38.8755 34.9158 38.9671 33.9706 39.3565 34.2007C39.7458 34.4307 39.1314 35.4616 39.6828 35.5485C40.2343 35.6354 39.9547 34.2967 40.5252 34.3851C41.0957 34.4734 40.715 35.5387 41.1189 35.7711C41.5229 36.0035 40.881 34.758 41.3405 34.8544C41.8 34.9507 41.8531 35.843 42.2509 36.0084C42.6488 36.1739 43.0026 35.9304 43.0845 35.5799C43.1664 35.2294 42.4133 34.6219 42.6541 34.2823C42.895 33.9426 43.6788 34.7489 43.8917 34.4422C44.1046 34.1356 42.7277 33.6919 43.2056 33.4881C43.6835 33.2842 44.4445 34.0437 44.9974 33.9704C45.5502 33.8972 46.0046 32.5004 46.0241 33.1141C46.0437 33.7279 45.6079 34.9151 45.0453 35.4701C44.4828 36.0251 43.3364 35.8743 42.9506 36.1462C42.5649 36.4181 42.8192 36.6469 43.1834 36.7821C43.5476 36.9174 44.407 36.6167 44.765 36.8202C45.123 37.0236 43.9492 36.924 43.8033 37.1345C43.6573 37.3449 43.8096 37.3982 44.1768 37.6673C44.544 37.9364 45.7447 38.2965 45.9692 38.7215C46.1936 39.1466 44.8078 39.0037 45.0878 39.3932C45.3679 39.7827 46.7753 39.71 46.9983 40.1528C47.2214 40.5956 45.372 40.1286 45.6621 40.5334C45.9522 40.9382 47.9595 40.4718 47.6219 41.0227C47.2844 41.5736 45.0254 40.6841 45.1411 41.3833C45.2568 42.0825 47.4998 41.286 47.7718 41.9275C48.0437 42.569 45.9346 42.3323 45.7638 42.8522C45.5929 43.3721 47.2097 42.5329 47.4446 42.9216C47.6796 43.3103 46.0204 43.2683 46.2865 43.718C46.5526 44.1677 48.5501 43.7772 48.3042 44.3731C48.0582 44.9689 45.8179 44.0039 45.8554 44.7622C45.8929 45.5206 48.91 45.4649 48.3974 46.2559C47.8848 47.0468 45.6712 46.1709 44.8933 46.2475C44.1153 46.324 46.3843 46.115 46.0589 46.4862C45.7334 46.8573 43.7653 46.6259 44.0635 47.1936C44.3616 47.7613 46.5183 46.555 46.4534 47.2377C46.3886 47.9204 43.9319 47.3858 43.978 48.0887C44.024 48.7915 46.3664 47.2786 46.5071 48.0569C46.6479 48.8351 44.1384 49.2709 44.3354 50.0641C44.5324 50.8572 46.751 48.2824 46.7804 49.1574C46.8098 50.0323 44.3192 50.6241 44.3849 51.5366C44.4506 52.4492 46.9346 49.2188 46.8551 50.1953C46.7757 51.1718 44.1122 51.8743 44.2695 52.9479C44.4269 54.0215 46.5364 49.7329 46.9519 50.8528C47.3674 51.9727 44.3089 53.2933 44.8234 54.4412C45.3378 55.5892 47.2311 50.6069 47.5582 52.0215C47.8853 53.4361 45.3901 55.9307 45.3878 56.9153C45.6673 58.5946 46.1686 57.0994 48.8683 52.6746C52.6664 50.0536 47.4784 38.3368 47.2399 35.3973C47.0014 32.4578 47.7211 35.503 47.8954 34.5529C48.0696 33.6029 48.5101 34.5584 48.5872 34.8265C48.6642 35.0947 48.2591 35.4379 48.26 35.8206C48.261 36.2033 48.3 36.812 48.5927 37.0597C48.8854 37.3075 49.4235 37.2665 49.545 36.9084C49.6665 36.5503 49.0154 35.8444 49.1209 35.5021C49.2264 35.1598 49.6087 35.4969 49.9183 35.6984C50.2279 35.8998 50.4004 36.7501 50.907 36.665C51.4136 36.5799 50.9028 35.633 51.3476 35.4578C51.7923 35.2826 52.2685 36.3333 52.5967 35.9995C52.925 35.6656 51.6901 34.9396 52.1711 34.6203C52.6521 34.3011 53.6456 35.3444 54.1036 34.9996C54.5616 34.6548 52.7759 33.823 53.4395 33.6651C54.1031 33.5073 54.889 34.6427 55.4703 34.6747C56.0516 34.7067 54.9824 33.8342 55.4214 33.7741C55.8603 33.714 56.2358 34.6192 56.6931 34.5073C57.1505 34.3954 56.2372 33.53 56.7545 33.4479C57.2717 33.3656 57.8558 34.2285 58.3256 34.2479C58.7954 34.2673 58.3621 33.579 58.7043 33.5283C59.0464 33.4775 59.2723 34.088 59.6173 34.0561C59.9623 34.0242 59.8152 33.4442 60.1272 33.3963C60.4393 33.3485 60.594 33.8878 60.8753 33.8629C61.1566 33.838 60.849 33.2969 61.1772 33.3035C61.5054 33.3101 61.7975 33.9079 62.1543 33.8884C62.511 33.869 62.2324 33.3078 62.597 33.2259C62.9617 33.144 63.7953 33.8872 63.8955 33.4973C63.9958 33.1075 63.1504 32.8187 62.7708 32.5523C62.3913 32.2859 62.026 31.8799 61.6288 31.9061C61.2316 31.9323 61.6797 32.6498 61.2486 32.6529C60.8175 32.656 60.3925 31.8597 59.9432 31.9183C59.4939 31.9769 60.3732 32.9297 59.8225 32.8392C59.2718 32.7486 58.7795 31.6524 58.174 31.6274C57.5686 31.6025 58.6884 32.8327 58.1416 32.7698C57.5948 32.7069 57.8188 31.9213 57.0694 31.5002C56.3199 31.079 54.7537 30.6603 53.801 30.3306C52.8483 30.0008 53.0096 29.5247 51.3542 29.5216C49.6987 29.5186 45.851 29.9703 44.1307 30.3129C42.4104 30.6555 42.2992 31.2003 41.3033 31.4217C40.3074 31.6431 38.6042 32.0547 37.8887 32.7786V32.7786Z" fill="#834B16"/>
</svg>
